<?xml version="1.0" encoding="UTF-8" ?>
<svg version="1.1" width="18" height="30" xmlns="http://www.w3.org/2000/svg" shape-rendering="crispEdges">
<rect x="9" y="5" width="4" height="1" fill="#202E37" />
<rect x="8" y="6" width="1" height="1" fill="#202E37" />
<rect x="9" y="6" width="3" height="1" fill="#577277" />
<rect x="12" y="6" width="1" height="1" fill="#394A50" />
<rect x="13" y="6" width="1" height="1" fill="#202E37" />
<rect x="7" y="7" width="1" height="4" fill="#202E37" />
<rect x="8" y="7" width="1" height="1" fill="#577277" />
<rect x="9" y="7" width="3" height="9" fill="#819796" />
<rect x="12" y="7" width="1" height="1" fill="#577277" />
<rect x="13" y="7" width="1" height="1" fill="#394A50" />
<rect x="14" y="7" width="1" height="3" fill="#202E37" />
<rect x="8" y="8" width="1" height="7" fill="#819796" />
<rect x="12" y="8" width="1" height="9" fill="#819796" />
<rect x="13" y="8" width="1" height="4" fill="#577277" />
<rect x="15" y="9" width="1" height="1" fill="#10141F" />
<rect x="6" y="10" width="1" height="1" fill="#10141F" />
<rect x="14" y="10" width="1" height="2" fill="#394A50" />
<rect x="15" y="10" width="1" height="8" fill="#202E37" />
<rect x="6" y="11" width="1" height="6" fill="#202E37" />
<rect x="7" y="11" width="1" height="1" fill="#577277" />
<rect x="7" y="12" width="1" height="3" fill="#819796" />
<rect x="13" y="12" width="1" height="4" fill="#819796" />
<rect x="14" y="12" width="1" height="9" fill="#577277" />
<rect x="5" y="15" width="1" height="1" fill="#10141F" />
<rect x="7" y="15" width="2" height="1" fill="#577277" />
<rect x="5" y="16" width="1" height="1" fill="#202E37" />
<rect x="7" y="16" width="2" height="1" fill="#202E37" />
<rect x="9" y="16" width="1" height="1" fill="#577277" />
<rect x="10" y="16" width="2" height="1" fill="#819796" />
<rect x="13" y="16" width="1" height="6" fill="#577277" />
<rect x="4" y="17" width="1" height="1" fill="#202E37" />
<rect x="5" y="17" width="3" height="1" fill="#577277" />
<rect x="8" y="17" width="1" height="1" fill="#394A50" />
<rect x="9" y="17" width="1" height="1" fill="#202E37" />
<rect x="10" y="17" width="1" height="1" fill="#577277" />
<rect x="11" y="17" width="1" height="1" fill="#819796" />
<rect x="12" y="17" width="1" height="6" fill="#577277" />
<rect x="16" y="17" width="1" height="1" fill="#10141F" />
<rect x="3" y="18" width="1" height="2" fill="#202E37" />
<rect x="4" y="18" width="1" height="2" fill="#577277" />
<rect x="5" y="18" width="3" height="8" fill="#819796" />
<rect x="8" y="18" width="1" height="1" fill="#577277" />
<rect x="9" y="18" width="1" height="1" fill="#394A50" />
<rect x="10" y="18" width="1" height="3" fill="#202E37" />
<rect x="11" y="18" width="1" height="1" fill="#577277" />
<rect x="15" y="18" width="1" height="8" fill="#394A50" />
<rect x="16" y="18" width="1" height="8" fill="#202E37" />
<rect x="2" y="19" width="1" height="1" fill="#10141F" />
<rect x="8" y="19" width="1" height="6" fill="#819796" />
<rect x="9" y="19" width="1" height="3" fill="#577277" />
<rect x="11" y="19" width="1" height="2" fill="#394A50" />
<rect x="2" y="20" width="1" height="3" fill="#202E37" />
<rect x="3" y="20" width="1" height="2" fill="#577277" />
<rect x="4" y="20" width="1" height="6" fill="#819796" />
<rect x="1" y="21" width="1" height="1" fill="#10141F" />
<rect x="10" y="21" width="1" height="1" fill="#394A50" />
<rect x="11" y="21" width="1" height="4" fill="#202E37" />
<rect x="14" y="21" width="1" height="6" fill="#394A50" />
<rect x="1" y="22" width="1" height="1" fill="#151D28" />
<rect x="3" y="22" width="1" height="3" fill="#819796" />
<rect x="9" y="22" width="1" height="2" fill="#819796" />
<rect x="10" y="22" width="1" height="4" fill="#577277" />
<rect x="13" y="22" width="1" height="6" fill="#394A50" />
<rect x="1" y="23" width="1" height="4" fill="#202E37" />
<rect x="2" y="23" width="1" height="3" fill="#577277" />
<rect x="12" y="23" width="1" height="5" fill="#394A50" />
<rect x="9" y="24" width="1" height="2" fill="#577277" />
<rect x="3" y="25" width="1" height="2" fill="#577277" />
<rect x="8" y="25" width="1" height="2" fill="#577277" />
<rect x="11" y="25" width="1" height="3" fill="#394A50" />
<rect x="2" y="26" width="1" height="1" fill="#394A50" />
<rect x="4" y="26" width="4" height="1" fill="#577277" />
<rect x="9" y="26" width="2" height="2" fill="#394A50" />
<rect x="15" y="26" width="1" height="2" fill="#202E37" />
<rect x="16" y="26" width="1" height="2" fill="#151D28" />
<rect x="1" y="27" width="1" height="1" fill="#151D28" />
<rect x="2" y="27" width="1" height="1" fill="#202E37" />
<rect x="3" y="27" width="6" height="1" fill="#394A50" />
<rect x="14" y="27" width="1" height="2" fill="#202E37" />
<rect x="1" y="28" width="1" height="1" fill="#10141F" />
<rect x="2" y="28" width="1" height="1" fill="#151D28" />
<rect x="3" y="28" width="11" height="1" fill="#202E37" />
<rect x="15" y="28" width="1" height="1" fill="#151D28" />
<rect x="16" y="28" width="1" height="1" fill="#10141F" />
</svg>