<?xml version="1.0" encoding="UTF-8" ?>
<svg version="1.1" width="16" height="16" xmlns="http://www.w3.org/2000/svg" shape-rendering="crispEdges">
<rect x="0" y="0" width="1" height="1" fill="#4F473F" />
<rect x="1" y="0" width="1" height="1" fill="#211912" />
<rect x="2" y="0" width="1" height="1" fill="#4F473F" />
<rect x="3" y="0" width="1" height="1" fill="#211912" />
<rect x="4" y="0" width="1" height="1" fill="#4F473F" />
<rect x="5" y="0" width="1" height="1" fill="#211912" />
<rect x="6" y="0" width="1" height="1" fill="#4F473F" />
<rect x="7" y="0" width="1" height="1" fill="#211912" />
<rect x="8" y="0" width="1" height="1" fill="#4F473F" />
<rect x="9" y="0" width="1" height="1" fill="#211912" />
<rect x="10" y="0" width="1" height="1" fill="#4F473F" />
<rect x="11" y="0" width="1" height="1" fill="#211912" />
<rect x="12" y="0" width="1" height="1" fill="#4F473F" />
<rect x="13" y="0" width="1" height="1" fill="#211912" />
<rect x="14" y="0" width="1" height="1" fill="#4F473F" />
<rect x="15" y="0" width="1" height="1" fill="#211912" />
<rect x="0" y="1" width="1" height="1" fill="#211912" />
<rect x="1" y="1" width="14" height="1" fill="#959595" />
<rect x="15" y="1" width="1" height="1" fill="#4F473F" />
<rect x="0" y="2" width="1" height="1" fill="#4F473F" />
<rect x="1" y="2" width="2" height="13" fill="#959595" />
<rect x="3" y="2" width="10" height="2" fill="#B0B0B0" />
<rect x="13" y="2" width="2" height="13" fill="#959595" />
<rect x="15" y="2" width="1" height="1" fill="#211912" />
<rect x="0" y="3" width="1" height="1" fill="#211912" />
<rect x="15" y="3" width="1" height="1" fill="#4F473F" />
<rect x="0" y="4" width="1" height="1" fill="#4F473F" />
<rect x="3" y="4" width="1" height="8" fill="#959595" />
<rect x="4" y="4" width="1" height="2" fill="#B0B0B0" />
<rect x="5" y="4" width="6" height="2" fill="#959595" />
<rect x="11" y="4" width="1" height="2" fill="#B0B0B0" />
<rect x="12" y="4" width="1" height="8" fill="#959595" />
<rect x="15" y="4" width="1" height="1" fill="#211912" />
<rect x="0" y="5" width="1" height="1" fill="#211912" />
<rect x="15" y="5" width="1" height="1" fill="#4F473F" />
<rect x="0" y="6" width="1" height="1" fill="#4F473F" />
<rect x="4" y="6" width="1" height="4" fill="#959595" />
<rect x="5" y="6" width="1" height="1" fill="#B0B0B0" />
<rect x="6" y="6" width="4" height="1" fill="#959595" />
<rect x="10" y="6" width="1" height="1" fill="#B0B0B0" />
<rect x="11" y="6" width="1" height="4" fill="#959595" />
<rect x="15" y="6" width="1" height="1" fill="#211912" />
<rect x="0" y="7" width="1" height="1" fill="#211912" />
<rect x="5" y="7" width="1" height="2" fill="#959595" />
<rect x="6" y="7" width="1" height="2" fill="#B0B0B0" />
<rect x="7" y="7" width="2" height="5" fill="#959595" />
<rect x="9" y="7" width="1" height="2" fill="#B0B0B0" />
<rect x="10" y="7" width="1" height="2" fill="#959595" />
<rect x="15" y="7" width="1" height="1" fill="#4F473F" />
<rect x="0" y="8" width="1" height="1" fill="#4F473F" />
<rect x="15" y="8" width="1" height="1" fill="#211912" />
<rect x="0" y="9" width="1" height="1" fill="#211912" />
<rect x="5" y="9" width="1" height="1" fill="#B0B0B0" />
<rect x="6" y="9" width="1" height="3" fill="#959595" />
<rect x="9" y="9" width="1" height="3" fill="#959595" />
<rect x="10" y="9" width="1" height="1" fill="#B0B0B0" />
<rect x="15" y="9" width="1" height="1" fill="#4F473F" />
<rect x="0" y="10" width="1" height="1" fill="#4F473F" />
<rect x="4" y="10" width="1" height="4" fill="#B0B0B0" />
<rect x="5" y="10" width="1" height="2" fill="#959595" />
<rect x="10" y="10" width="1" height="2" fill="#959595" />
<rect x="11" y="10" width="1" height="4" fill="#B0B0B0" />
<rect x="15" y="10" width="1" height="1" fill="#211912" />
<rect x="0" y="11" width="1" height="1" fill="#211912" />
<rect x="15" y="11" width="1" height="1" fill="#4F473F" />
<rect x="0" y="12" width="1" height="1" fill="#4F473F" />
<rect x="3" y="12" width="1" height="2" fill="#B0B0B0" />
<rect x="5" y="12" width="6" height="2" fill="#B0B0B0" />
<rect x="12" y="12" width="1" height="2" fill="#B0B0B0" />
<rect x="15" y="12" width="1" height="1" fill="#211912" />
<rect x="0" y="13" width="1" height="1" fill="#211912" />
<rect x="15" y="13" width="1" height="1" fill="#4F473F" />
<rect x="0" y="14" width="1" height="1" fill="#4F473F" />
<rect x="3" y="14" width="10" height="1" fill="#959595" />
<rect x="15" y="14" width="1" height="1" fill="#211912" />
<rect x="0" y="15" width="1" height="1" fill="#211912" />
<rect x="1" y="15" width="1" height="1" fill="#4F473F" />
<rect x="2" y="15" width="1" height="1" fill="#211912" />
<rect x="3" y="15" width="1" height="1" fill="#4F473F" />
<rect x="4" y="15" width="1" height="1" fill="#211912" />
<rect x="5" y="15" width="1" height="1" fill="#4F473F" />
<rect x="6" y="15" width="1" height="1" fill="#211912" />
<rect x="7" y="15" width="1" height="1" fill="#4F473F" />
<rect x="8" y="15" width="1" height="1" fill="#211912" />
<rect x="9" y="15" width="1" height="1" fill="#4F473F" />
<rect x="10" y="15" width="1" height="1" fill="#211912" />
<rect x="11" y="15" width="1" height="1" fill="#4F473F" />
<rect x="12" y="15" width="1" height="1" fill="#211912" />
<rect x="13" y="15" width="1" height="1" fill="#4F473F" />
<rect x="14" y="15" width="1" height="1" fill="#211912" />
<rect x="15" y="15" width="1" height="1" fill="#4F473F" />
</svg>