<?xml version="1.0" encoding="UTF-8" ?>
<svg version="1.1" width="18" height="18" xmlns="http://www.w3.org/2000/svg" shape-rendering="crispEdges">
<rect x="6" y="1" width="1" height="2" fill="#211912" />
<rect x="7" y="1" width="4" height="5" fill="#888888" />
<rect x="11" y="1" width="1" height="2" fill="#211912" />
<rect x="5" y="3" width="1" height="1" fill="#211912" />
<rect x="6" y="3" width="1" height="3" fill="#888888" />
<rect x="11" y="3" width="1" height="3" fill="#888888" />
<rect x="12" y="3" width="1" height="1" fill="#211912" />
<rect x="4" y="4" width="1" height="1" fill="#211912" />
<rect x="5" y="4" width="1" height="2" fill="#888888" />
<rect x="12" y="4" width="1" height="2" fill="#888888" />
<rect x="13" y="4" width="1" height="1" fill="#211912" />
<rect x="3" y="5" width="1" height="2" fill="#211912" />
<rect x="4" y="5" width="1" height="1" fill="#888888" />
<rect x="13" y="5" width="1" height="1" fill="#888888" />
<rect x="14" y="5" width="1" height="2" fill="#211912" />
<rect x="4" y="6" width="10" height="1" fill="#211912" />
<rect x="2" y="7" width="1" height="9" fill="#211912" />
<rect x="3" y="7" width="12" height="1" fill="#616161" />
<rect x="15" y="7" width="1" height="9" fill="#211912" />
<rect x="3" y="8" width="2" height="8" fill="#616161" />
<rect x="5" y="8" width="8" height="1" fill="#211912" />
<rect x="13" y="8" width="2" height="8" fill="#616161" />
<rect x="5" y="9" width="2" height="1" fill="#211912" />
<rect x="7" y="9" width="4" height="2" fill="#FF6F00" />
<rect x="11" y="9" width="2" height="1" fill="#211912" />
<rect x="5" y="10" width="1" height="1" fill="#211912" />
<rect x="6" y="10" width="1" height="1" fill="#FF6F00" />
<rect x="11" y="10" width="1" height="1" fill="#FF6F00" />
<rect x="12" y="10" width="1" height="1" fill="#211912" />
<rect x="5" y="11" width="8" height="1" fill="#616161" />
<rect x="5" y="12" width="8" height="1" fill="#211912" />
<rect x="5" y="13" width="1" height="3" fill="#211912" />
<rect x="12" y="13" width="1" height="3" fill="#211912" />
</svg>