<?xml version="1.0" encoding="UTF-8" ?>
<svg version="1.1" width="18" height="18" xmlns="http://www.w3.org/2000/svg" shape-rendering="crispEdges">
<rect x="0" y="0" width="18" height="1" fill="#090A14" />
<rect x="0" y="1" width="1" height="17" fill="#090A14" />
<rect x="1" y="1" width="1" height="1" fill="#202E37" />
<rect x="2" y="1" width="2" height="1" fill="#577277" />
<rect x="4" y="1" width="10" height="16" fill="#A8B5B2" />
<rect x="14" y="1" width="2" height="1" fill="#577277" />
<rect x="16" y="1" width="1" height="1" fill="#202E37" />
<rect x="17" y="1" width="1" height="17" fill="#090A14" />
<rect x="1" y="2" width="1" height="2" fill="#577277" />
<rect x="2" y="2" width="2" height="14" fill="#A8B5B2" />
<rect x="14" y="2" width="2" height="14" fill="#A8B5B2" />
<rect x="16" y="2" width="1" height="2" fill="#577277" />
<rect x="1" y="4" width="1" height="10" fill="#A8B5B2" />
<rect x="16" y="4" width="1" height="10" fill="#A8B5B2" />
<rect x="1" y="14" width="1" height="2" fill="#577277" />
<rect x="16" y="14" width="1" height="2" fill="#577277" />
<rect x="1" y="16" width="1" height="1" fill="#202E37" />
<rect x="2" y="16" width="2" height="1" fill="#577277" />
<rect x="14" y="16" width="2" height="1" fill="#577277" />
<rect x="16" y="16" width="1" height="1" fill="#202E37" />
<rect x="1" y="17" width="16" height="1" fill="#090A14" />
</svg>