<?xml version="1.0" encoding="UTF-8" ?>
<svg version="1.1" width="18" height="28" xmlns="http://www.w3.org/2000/svg" shape-rendering="crispEdges">
<rect x="3" y="13" width="7" height="1" fill="#EBEDE9" />
<rect x="2" y="14" width="1" height="3" fill="#EBEDE9" />
<rect x="3" y="14" width="2" height="1" fill="#341C27" />
<rect x="5" y="14" width="4" height="1" fill="#202E37" />
<rect x="9" y="14" width="1" height="1" fill="#341C27" />
<rect x="10" y="14" width="2" height="1" fill="#EBEDE9" />
<rect x="3" y="15" width="1" height="1" fill="#341C27" />
<rect x="4" y="15" width="1" height="1" fill="#202E37" />
<rect x="5" y="15" width="2" height="1" fill="#577277" />
<rect x="7" y="15" width="1" height="1" fill="#394A50" />
<rect x="8" y="15" width="1" height="1" fill="#4D2B32" />
<rect x="9" y="15" width="1" height="1" fill="#7A4841" />
<rect x="10" y="15" width="1" height="1" fill="#4D2B32" />
<rect x="11" y="15" width="1" height="1" fill="#341C27" />
<rect x="12" y="15" width="3" height="1" fill="#EBEDE9" />
<rect x="3" y="16" width="1" height="1" fill="#202E37" />
<rect x="4" y="16" width="1" height="1" fill="#577277" />
<rect x="5" y="16" width="3" height="1" fill="#819796" />
<rect x="8" y="16" width="1" height="3" fill="#394A50" />
<rect x="9" y="16" width="1" height="2" fill="#4D2B32" />
<rect x="10" y="16" width="1" height="1" fill="#7A4841" />
<rect x="11" y="16" width="3" height="1" fill="#4D2B32" />
<rect x="14" y="16" width="1" height="1" fill="#341C27" />
<rect x="15" y="16" width="1" height="2" fill="#EBEDE9" />
<rect x="1" y="17" width="1" height="3" fill="#EBEDE9" />
<rect x="2" y="17" width="1" height="1" fill="#341C27" />
<rect x="3" y="17" width="1" height="1" fill="#577277" />
<rect x="4" y="17" width="3" height="2" fill="#819796" />
<rect x="7" y="17" width="1" height="2" fill="#577277" />
<rect x="10" y="17" width="1" height="2" fill="#AD7757" />
<rect x="11" y="17" width="1" height="1" fill="#7A4841" />
<rect x="12" y="17" width="1" height="1" fill="#4D2B32" />
<rect x="13" y="17" width="1" height="2" fill="#394A50" />
<rect x="14" y="17" width="1" height="1" fill="#202E37" />
<rect x="2" y="18" width="2" height="1" fill="#4D2B32" />
<rect x="9" y="18" width="1" height="1" fill="#7A4841" />
<rect x="11" y="18" width="1" height="1" fill="#4D2B32" />
<rect x="12" y="18" width="1" height="3" fill="#394A50" />
<rect x="14" y="18" width="1" height="1" fill="#394A50" />
<rect x="15" y="18" width="1" height="4" fill="#202E37" />
<rect x="16" y="18" width="1" height="2" fill="#EBEDE9" />
<rect x="2" y="19" width="1" height="1" fill="#AD7757" />
<rect x="3" y="19" width="1" height="4" fill="#4D2B32" />
<rect x="4" y="19" width="2" height="1" fill="#819796" />
<rect x="6" y="19" width="1" height="2" fill="#577277" />
<rect x="7" y="19" width="1" height="1" fill="#394A50" />
<rect x="8" y="19" width="1" height="1" fill="#7A4841" />
<rect x="9" y="19" width="1" height="1" fill="#AD7757" />
<rect x="10" y="19" width="1" height="2" fill="#4D2B32" />
<rect x="11" y="19" width="1" height="1" fill="#394A50" />
<rect x="13" y="19" width="2" height="1" fill="#577277" />
<rect x="0" y="20" width="1" height="6" fill="#EBEDE9" />
<rect x="1" y="20" width="1" height="1" fill="#341C27" />
<rect x="2" y="20" width="1" height="1" fill="#7A4841" />
<rect x="4" y="20" width="1" height="1" fill="#819796" />
<rect x="5" y="20" width="1" height="2" fill="#577277" />
<rect x="7" y="20" width="1" height="2" fill="#4D2B32" />
<rect x="8" y="20" width="1" height="1" fill="#AD7757" />
<rect x="9" y="20" width="1" height="1" fill="#7A4841" />
<rect x="11" y="20" width="1" height="4" fill="#4D2B32" />
<rect x="13" y="20" width="1" height="2" fill="#577277" />
<rect x="14" y="20" width="1" height="6" fill="#394A50" />
<rect x="16" y="20" width="1" height="2" fill="#341C27" />
<rect x="17" y="20" width="1" height="6" fill="#EBEDE9" />
<rect x="1" y="21" width="1" height="4" fill="#202E37" />
<rect x="2" y="21" width="1" height="1" fill="#4D2B32" />
<rect x="4" y="21" width="1" height="4" fill="#577277" />
<rect x="6" y="21" width="1" height="1" fill="#394A50" />
<rect x="8" y="21" width="1" height="1" fill="#7A4841" />
<rect x="9" y="21" width="1" height="1" fill="#4D2B32" />
<rect x="10" y="21" width="1" height="1" fill="#7A4841" />
<rect x="12" y="21" width="1" height="2" fill="#577277" />
<rect x="2" y="22" width="1" height="2" fill="#577277" />
<rect x="5" y="22" width="1" height="2" fill="#394A50" />
<rect x="6" y="22" width="1" height="3" fill="#4D2B32" />
<rect x="7" y="22" width="1" height="1" fill="#7A4841" />
<rect x="8" y="22" width="1" height="1" fill="#394A50" />
<rect x="9" y="22" width="1" height="2" fill="#577277" />
<rect x="10" y="22" width="1" height="1" fill="#4D2B32" />
<rect x="13" y="22" width="1" height="4" fill="#394A50" />
<rect x="15" y="22" width="1" height="4" fill="#394A50" />
<rect x="16" y="22" width="1" height="4" fill="#202E37" />
<rect x="3" y="23" width="1" height="2" fill="#577277" />
<rect x="7" y="23" width="1" height="1" fill="#4D2B32" />
<rect x="8" y="23" width="1" height="1" fill="#577277" />
<rect x="10" y="23" width="1" height="1" fill="#577277" />
<rect x="12" y="23" width="1" height="3" fill="#394A50" />
<rect x="2" y="24" width="1" height="1" fill="#4D2B32" />
<rect x="5" y="24" width="1" height="1" fill="#577277" />
<rect x="7" y="24" width="5" height="2" fill="#394A50" />
<rect x="1" y="25" width="1" height="1" fill="#341C27" />
<rect x="2" y="25" width="1" height="1" fill="#7A4841" />
<rect x="3" y="25" width="2" height="1" fill="#4D2B32" />
<rect x="5" y="25" width="2" height="1" fill="#394A50" />
<rect x="1" y="26" width="1" height="1" fill="#EBEDE9" />
<rect x="2" y="26" width="1" height="1" fill="#4D2B32" />
<rect x="3" y="26" width="1" height="1" fill="#341C27" />
<rect x="4" y="26" width="12" height="1" fill="#202E37" />
<rect x="16" y="26" width="1" height="1" fill="#EBEDE9" />
<rect x="2" y="27" width="14" height="1" fill="#EBEDE9" />
</svg>