<?xml version="1.0" encoding="UTF-8" ?>
<svg version="1.1" width="21" height="29" xmlns="http://www.w3.org/2000/svg" shape-rendering="crispEdges">
<rect x="6" y="10" width="2" height="1" fill="#D9D9D9" />
<rect x="5" y="11" width="1" height="4" fill="#D9D9D9" />
<rect x="6" y="11" width="2" height="4" fill="#C66820" />
<rect x="8" y="11" width="6" height="1" fill="#D9D9D9" />
<rect x="8" y="12" width="1" height="3" fill="#C66820" />
<rect x="9" y="12" width="1" height="3" fill="#211912" />
<rect x="10" y="12" width="4" height="1" fill="#616161" />
<rect x="14" y="12" width="2" height="1" fill="#D9D9D9" />
<rect x="10" y="13" width="4" height="3" fill="#888888" />
<rect x="14" y="13" width="2" height="1" fill="#616161" />
<rect x="16" y="13" width="1" height="1" fill="#D9D9D9" />
<rect x="14" y="14" width="2" height="4" fill="#888888" />
<rect x="16" y="14" width="1" height="4" fill="#616161" />
<rect x="17" y="14" width="1" height="3" fill="#D9D9D9" />
<rect x="1" y="15" width="2" height="1" fill="#D9D9D9" />
<rect x="4" y="15" width="1" height="2" fill="#D9D9D9" />
<rect x="5" y="15" width="1" height="3" fill="#616161" />
<rect x="6" y="15" width="3" height="1" fill="#211912" />
<rect x="9" y="15" width="1" height="1" fill="#888888" />
<rect x="0" y="16" width="1" height="4" fill="#D9D9D9" />
<rect x="1" y="16" width="2" height="4" fill="#C66820" />
<rect x="3" y="16" width="1" height="1" fill="#D9D9D9" />
<rect x="6" y="16" width="3" height="1" fill="#888888" />
<rect x="9" y="16" width="3" height="1" fill="#211912" />
<rect x="12" y="16" width="2" height="1" fill="#888888" />
<rect x="18" y="16" width="2" height="1" fill="#D9D9D9" />
<rect x="3" y="17" width="1" height="3" fill="#C66820" />
<rect x="4" y="17" width="1" height="1" fill="#211912" />
<rect x="6" y="17" width="2" height="1" fill="#888888" />
<rect x="8" y="17" width="1" height="1" fill="#211912" />
<rect x="9" y="17" width="3" height="4" fill="#C66820" />
<rect x="12" y="17" width="1" height="5" fill="#211912" />
<rect x="13" y="17" width="1" height="11" fill="#888888" />
<rect x="17" y="17" width="1" height="1" fill="#211912" />
<rect x="18" y="17" width="2" height="4" fill="#C66820" />
<rect x="20" y="17" width="1" height="4" fill="#D9D9D9" />
<rect x="4" y="18" width="1" height="2" fill="#C66820" />
<rect x="5" y="18" width="1" height="2" fill="#211912" />
<rect x="6" y="18" width="1" height="6" fill="#888888" />
<rect x="7" y="18" width="1" height="2" fill="#211912" />
<rect x="8" y="18" width="1" height="2" fill="#C66820" />
<rect x="14" y="18" width="1" height="1" fill="#888888" />
<rect x="15" y="18" width="2" height="1" fill="#211912" />
<rect x="17" y="18" width="1" height="5" fill="#C66820" />
<rect x="14" y="19" width="1" height="3" fill="#211912" />
<rect x="15" y="19" width="2" height="3" fill="#C66820" />
<rect x="1" y="20" width="2" height="1" fill="#D9D9D9" />
<rect x="3" y="20" width="2" height="1" fill="#211912" />
<rect x="5" y="20" width="1" height="2" fill="#616161" />
<rect x="7" y="20" width="1" height="3" fill="#888888" />
<rect x="8" y="20" width="1" height="1" fill="#211912" />
<rect x="2" y="21" width="1" height="5" fill="#D9D9D9" />
<rect x="3" y="21" width="2" height="5" fill="#616161" />
<rect x="8" y="21" width="1" height="2" fill="#888888" />
<rect x="9" y="21" width="1" height="1" fill="#211912" />
<rect x="10" y="21" width="2" height="1" fill="#C66820" />
<rect x="18" y="21" width="1" height="2" fill="#C66820" />
<rect x="19" y="21" width="1" height="2" fill="#D9D9D9" />
<rect x="5" y="22" width="1" height="2" fill="#888888" />
<rect x="9" y="22" width="1" height="2" fill="#888888" />
<rect x="10" y="22" width="2" height="1" fill="#211912" />
<rect x="12" y="22" width="1" height="6" fill="#888888" />
<rect x="14" y="22" width="1" height="5" fill="#888888" />
<rect x="15" y="22" width="1" height="1" fill="#211912" />
<rect x="16" y="22" width="1" height="1" fill="#C66820" />
<rect x="7" y="23" width="2" height="1" fill="#211912" />
<rect x="10" y="23" width="2" height="2" fill="#888888" />
<rect x="15" y="23" width="1" height="3" fill="#888888" />
<rect x="16" y="23" width="1" height="1" fill="#211912" />
<rect x="17" y="23" width="2" height="1" fill="#D9D9D9" />
<rect x="5" y="24" width="1" height="4" fill="#616161" />
<rect x="6" y="24" width="1" height="3" fill="#211912" />
<rect x="7" y="24" width="2" height="3" fill="#C66820" />
<rect x="9" y="24" width="1" height="1" fill="#211912" />
<rect x="16" y="24" width="1" height="2" fill="#616161" />
<rect x="17" y="24" width="1" height="2" fill="#D9D9D9" />
<rect x="9" y="25" width="1" height="2" fill="#C66820" />
<rect x="10" y="25" width="1" height="2" fill="#211912" />
<rect x="11" y="25" width="1" height="3" fill="#888888" />
<rect x="3" y="26" width="1" height="1" fill="#D9D9D9" />
<rect x="4" y="26" width="1" height="1" fill="#616161" />
<rect x="15" y="26" width="1" height="1" fill="#616161" />
<rect x="16" y="26" width="1" height="1" fill="#D9D9D9" />
<rect x="4" y="27" width="1" height="1" fill="#D9D9D9" />
<rect x="6" y="27" width="1" height="1" fill="#888888" />
<rect x="7" y="27" width="3" height="1" fill="#211912" />
<rect x="10" y="27" width="1" height="1" fill="#888888" />
<rect x="14" y="27" width="1" height="1" fill="#616161" />
<rect x="15" y="27" width="1" height="1" fill="#D9D9D9" />
</svg>