<?xml version="1.0" encoding="UTF-8" ?>
<svg version="1.1" width="16" height="16" xmlns="http://www.w3.org/2000/svg" shape-rendering="crispEdges">
<rect x="10" y="2" width="3" height="1" fill="#211912" />
<rect x="8" y="3" width="2" height="1" fill="#211912" />
<rect x="10" y="3" width="3" height="3" fill="#B0B0B0" />
<rect x="13" y="3" width="1" height="1" fill="#211912" />
<rect x="6" y="4" width="2" height="1" fill="#211912" />
<rect x="8" y="4" width="2" height="4" fill="#B0B0B0" />
<rect x="13" y="4" width="1" height="2" fill="#B0B0B0" />
<rect x="14" y="4" width="1" height="4" fill="#211912" />
<rect x="4" y="5" width="2" height="1" fill="#211912" />
<rect x="6" y="5" width="2" height="4" fill="#B0B0B0" />
<rect x="2" y="6" width="2" height="1" fill="#211912" />
<rect x="4" y="6" width="2" height="4" fill="#B0B0B0" />
<rect x="10" y="6" width="2" height="1" fill="#B0B0B0" />
<rect x="12" y="6" width="2" height="2" fill="#959595" />
<rect x="1" y="7" width="1" height="4" fill="#211912" />
<rect x="2" y="7" width="2" height="2" fill="#B0B0B0" />
<rect x="10" y="7" width="2" height="2" fill="#959595" />
<rect x="8" y="8" width="2" height="2" fill="#959595" />
<rect x="12" y="8" width="2" height="1" fill="#211912" />
<rect x="2" y="9" width="1" height="2" fill="#959595" />
<rect x="3" y="9" width="1" height="1" fill="#B0B0B0" />
<rect x="6" y="9" width="2" height="2" fill="#959595" />
<rect x="10" y="9" width="2" height="1" fill="#211912" />
<rect x="3" y="10" width="3" height="2" fill="#959595" />
<rect x="8" y="10" width="2" height="1" fill="#211912" />
<rect x="2" y="11" width="1" height="1" fill="#211912" />
<rect x="6" y="11" width="2" height="1" fill="#211912" />
<rect x="3" y="12" width="3" height="1" fill="#211912" />
</svg>