<?xml version="1.0" encoding="UTF-8" ?>
<svg version="1.1" width="18" height="18" xmlns="http://www.w3.org/2000/svg" shape-rendering="crispEdges">
<rect x="0" y="0" width="18" height="4" fill="#090A14" />
<rect x="0" y="4" width="5" height="1" fill="#090A14" />
<rect x="5" y="4" width="4" height="1" fill="#202E37" />
<rect x="9" y="4" width="1" height="1" fill="#341C27" />
<rect x="10" y="4" width="8" height="1" fill="#090A14" />
<rect x="0" y="5" width="4" height="1" fill="#090A14" />
<rect x="4" y="5" width="1" height="1" fill="#202E37" />
<rect x="5" y="5" width="2" height="1" fill="#577277" />
<rect x="7" y="5" width="1" height="1" fill="#394A50" />
<rect x="8" y="5" width="1" height="1" fill="#4D2B32" />
<rect x="9" y="5" width="1" height="1" fill="#7A4841" />
<rect x="10" y="5" width="1" height="1" fill="#4D2B32" />
<rect x="11" y="5" width="1" height="1" fill="#341C27" />
<rect x="12" y="5" width="6" height="1" fill="#090A14" />
<rect x="0" y="6" width="3" height="1" fill="#090A14" />
<rect x="3" y="6" width="1" height="1" fill="#202E37" />
<rect x="4" y="6" width="1" height="1" fill="#577277" />
<rect x="5" y="6" width="3" height="1" fill="#819796" />
<rect x="8" y="6" width="1" height="3" fill="#394A50" />
<rect x="9" y="6" width="1" height="2" fill="#4D2B32" />
<rect x="10" y="6" width="1" height="1" fill="#7A4841" />
<rect x="11" y="6" width="3" height="1" fill="#4D2B32" />
<rect x="14" y="6" width="1" height="1" fill="#341C27" />
<rect x="15" y="6" width="3" height="2" fill="#090A14" />
<rect x="0" y="7" width="2" height="3" fill="#090A14" />
<rect x="2" y="7" width="1" height="1" fill="#341C27" />
<rect x="3" y="7" width="1" height="1" fill="#577277" />
<rect x="4" y="7" width="3" height="2" fill="#819796" />
<rect x="7" y="7" width="1" height="2" fill="#577277" />
<rect x="10" y="7" width="1" height="2" fill="#AD7757" />
<rect x="11" y="7" width="1" height="1" fill="#7A4841" />
<rect x="12" y="7" width="1" height="1" fill="#4D2B32" />
<rect x="13" y="7" width="1" height="2" fill="#394A50" />
<rect x="14" y="7" width="1" height="1" fill="#202E37" />
<rect x="2" y="8" width="2" height="1" fill="#4D2B32" />
<rect x="9" y="8" width="1" height="1" fill="#7A4841" />
<rect x="11" y="8" width="1" height="1" fill="#4D2B32" />
<rect x="12" y="8" width="1" height="3" fill="#394A50" />
<rect x="14" y="8" width="1" height="1" fill="#394A50" />
<rect x="15" y="8" width="1" height="4" fill="#202E37" />
<rect x="16" y="8" width="2" height="4" fill="#090A14" />
<rect x="2" y="9" width="1" height="1" fill="#AD7757" />
<rect x="3" y="9" width="1" height="4" fill="#4D2B32" />
<rect x="4" y="9" width="2" height="1" fill="#819796" />
<rect x="6" y="9" width="1" height="2" fill="#577277" />
<rect x="7" y="9" width="1" height="1" fill="#394A50" />
<rect x="8" y="9" width="1" height="1" fill="#7A4841" />
<rect x="9" y="9" width="1" height="1" fill="#AD7757" />
<rect x="10" y="9" width="1" height="2" fill="#4D2B32" />
<rect x="11" y="9" width="1" height="1" fill="#394A50" />
<rect x="13" y="9" width="2" height="1" fill="#577277" />
<rect x="0" y="10" width="1" height="8" fill="#090A14" />
<rect x="1" y="10" width="1" height="1" fill="#341C27" />
<rect x="2" y="10" width="1" height="1" fill="#7A4841" />
<rect x="4" y="10" width="1" height="1" fill="#819796" />
<rect x="5" y="10" width="1" height="2" fill="#577277" />
<rect x="7" y="10" width="1" height="2" fill="#4D2B32" />
<rect x="8" y="10" width="1" height="1" fill="#AD7757" />
<rect x="9" y="10" width="1" height="1" fill="#7A4841" />
<rect x="11" y="10" width="1" height="4" fill="#4D2B32" />
<rect x="13" y="10" width="1" height="2" fill="#577277" />
<rect x="14" y="10" width="1" height="6" fill="#394A50" />
<rect x="1" y="11" width="1" height="5" fill="#202E37" />
<rect x="2" y="11" width="1" height="1" fill="#4D2B32" />
<rect x="4" y="11" width="1" height="4" fill="#577277" />
<rect x="6" y="11" width="1" height="1" fill="#394A50" />
<rect x="8" y="11" width="1" height="1" fill="#7A4841" />
<rect x="9" y="11" width="1" height="1" fill="#4D2B32" />
<rect x="10" y="11" width="1" height="1" fill="#7A4841" />
<rect x="12" y="11" width="1" height="2" fill="#577277" />
<rect x="2" y="12" width="1" height="2" fill="#577277" />
<rect x="5" y="12" width="1" height="2" fill="#394A50" />
<rect x="6" y="12" width="1" height="3" fill="#4D2B32" />
<rect x="7" y="12" width="1" height="1" fill="#7A4841" />
<rect x="8" y="12" width="1" height="1" fill="#394A50" />
<rect x="9" y="12" width="1" height="2" fill="#577277" />
<rect x="10" y="12" width="1" height="1" fill="#4D2B32" />
<rect x="13" y="12" width="1" height="4" fill="#394A50" />
<rect x="15" y="12" width="1" height="4" fill="#394A50" />
<rect x="16" y="12" width="1" height="4" fill="#202E37" />
<rect x="17" y="12" width="1" height="6" fill="#090A14" />
<rect x="3" y="13" width="1" height="2" fill="#577277" />
<rect x="7" y="13" width="1" height="1" fill="#4D2B32" />
<rect x="8" y="13" width="1" height="1" fill="#577277" />
<rect x="10" y="13" width="1" height="1" fill="#577277" />
<rect x="12" y="13" width="1" height="3" fill="#394A50" />
<rect x="2" y="14" width="1" height="2" fill="#394A50" />
<rect x="5" y="14" width="1" height="1" fill="#577277" />
<rect x="7" y="14" width="5" height="2" fill="#394A50" />
<rect x="3" y="15" width="4" height="1" fill="#394A50" />
<rect x="1" y="16" width="1" height="2" fill="#090A14" />
<rect x="2" y="16" width="14" height="1" fill="#202E37" />
<rect x="16" y="16" width="1" height="2" fill="#090A14" />
<rect x="2" y="17" width="14" height="1" fill="#090A14" />
</svg>