<?xml version="1.0" encoding="UTF-8" ?>
<svg version="1.1" width="18" height="18" xmlns="http://www.w3.org/2000/svg" shape-rendering="crispEdges">
<rect x="0" y="0" width="18" height="1" fill="#090A14" />
<rect x="0" y="1" width="5" height="1" fill="#090A14" />
<rect x="5" y="1" width="2" height="1" fill="#10141F" />
<rect x="7" y="1" width="11" height="1" fill="#090A14" />
<rect x="0" y="2" width="1" height="16" fill="#090A14" />
<rect x="1" y="2" width="2" height="1" fill="#10141F" />
<rect x="3" y="2" width="1" height="1" fill="#341C27" />
<rect x="4" y="2" width="3" height="2" fill="#602C2C" />
<rect x="7" y="2" width="1" height="1" fill="#341C27" />
<rect x="8" y="2" width="1" height="2" fill="#10141F" />
<rect x="9" y="2" width="2" height="1" fill="#090A14" />
<rect x="11" y="2" width="1" height="1" fill="#10141F" />
<rect x="12" y="2" width="3" height="1" fill="#341C27" />
<rect x="15" y="2" width="2" height="1" fill="#10141F" />
<rect x="17" y="2" width="1" height="16" fill="#090A14" />
<rect x="1" y="3" width="1" height="1" fill="#341C27" />
<rect x="2" y="3" width="2" height="1" fill="#602C2C" />
<rect x="7" y="3" width="1" height="3" fill="#602C2C" />
<rect x="9" y="3" width="3" height="1" fill="#341C27" />
<rect x="12" y="3" width="4" height="1" fill="#602C2C" />
<rect x="16" y="3" width="1" height="1" fill="#341C27" />
<rect x="1" y="4" width="2" height="1" fill="#602C2C" />
<rect x="3" y="4" width="3" height="8" fill="#7A4841" />
<rect x="6" y="4" width="1" height="1" fill="#602C2C" />
<rect x="8" y="4" width="6" height="1" fill="#602C2C" />
<rect x="14" y="4" width="1" height="9" fill="#7A4841" />
<rect x="15" y="4" width="2" height="1" fill="#602C2C" />
<rect x="1" y="5" width="1" height="1" fill="#602C2C" />
<rect x="2" y="5" width="1" height="8" fill="#7A4841" />
<rect x="6" y="5" width="1" height="8" fill="#7A4841" />
<rect x="8" y="5" width="1" height="1" fill="#602C2C" />
<rect x="9" y="5" width="2" height="7" fill="#7A4841" />
<rect x="11" y="5" width="2" height="1" fill="#602C2C" />
<rect x="13" y="5" width="1" height="8" fill="#7A4841" />
<rect x="15" y="5" width="2" height="8" fill="#7A4841" />
<rect x="1" y="6" width="1" height="8" fill="#7A4841" />
<rect x="7" y="6" width="2" height="8" fill="#7A4841" />
<rect x="11" y="6" width="2" height="6" fill="#7A4841" />
<rect x="3" y="12" width="2" height="2" fill="#602C2C" />
<rect x="5" y="12" width="1" height="1" fill="#7A4841" />
<rect x="9" y="12" width="1" height="1" fill="#7A4841" />
<rect x="10" y="12" width="3" height="2" fill="#602C2C" />
<rect x="2" y="13" width="1" height="2" fill="#602C2C" />
<rect x="5" y="13" width="2" height="1" fill="#602C2C" />
<rect x="9" y="13" width="1" height="2" fill="#602C2C" />
<rect x="13" y="13" width="3" height="1" fill="#602C2C" />
<rect x="16" y="13" width="1" height="1" fill="#7A4841" />
<rect x="1" y="14" width="1" height="1" fill="#602C2C" />
<rect x="3" y="14" width="1" height="2" fill="#10141F" />
<rect x="4" y="14" width="2" height="1" fill="#341C27" />
<rect x="6" y="14" width="3" height="1" fill="#602C2C" />
<rect x="10" y="14" width="1" height="1" fill="#602C2C" />
<rect x="11" y="14" width="1" height="1" fill="#341C27" />
<rect x="12" y="14" width="1" height="1" fill="#10141F" />
<rect x="13" y="14" width="2" height="1" fill="#341C27" />
<rect x="15" y="14" width="2" height="1" fill="#602C2C" />
<rect x="1" y="15" width="1" height="1" fill="#341C27" />
<rect x="2" y="15" width="1" height="1" fill="#10141F" />
<rect x="4" y="15" width="1" height="3" fill="#090A14" />
<rect x="5" y="15" width="1" height="1" fill="#10141F" />
<rect x="6" y="15" width="1" height="1" fill="#341C27" />
<rect x="7" y="15" width="2" height="1" fill="#602C2C" />
<rect x="9" y="15" width="1" height="1" fill="#341C27" />
<rect x="10" y="15" width="2" height="1" fill="#10141F" />
<rect x="12" y="15" width="2" height="3" fill="#090A14" />
<rect x="14" y="15" width="1" height="1" fill="#10141F" />
<rect x="15" y="15" width="2" height="1" fill="#341C27" />
<rect x="1" y="16" width="3" height="2" fill="#090A14" />
<rect x="5" y="16" width="7" height="2" fill="#090A14" />
<rect x="14" y="16" width="3" height="2" fill="#090A14" />
</svg>