<?xml version="1.0" encoding="UTF-8" ?>
<svg version="1.1" width="18" height="18" xmlns="http://www.w3.org/2000/svg" shape-rendering="crispEdges">
<rect x="0" y="0" width="18" height="1" fill="#090A14" />
<rect x="0" y="1" width="2" height="17" fill="#090A14" />
<rect x="2" y="1" width="1" height="1" fill="#341C27" />
<rect x="3" y="1" width="1" height="2" fill="#602C2C" />
<rect x="4" y="1" width="8" height="1" fill="#7A4841" />
<rect x="12" y="1" width="2" height="1" fill="#602C2C" />
<rect x="14" y="1" width="1" height="1" fill="#341C27" />
<rect x="15" y="1" width="1" height="2" fill="#10141F" />
<rect x="16" y="1" width="2" height="4" fill="#090A14" />
<rect x="2" y="2" width="1" height="2" fill="#10141F" />
<rect x="4" y="2" width="1" height="5" fill="#602C2C" />
<rect x="5" y="2" width="8" height="1" fill="#7A4841" />
<rect x="13" y="2" width="2" height="1" fill="#602C2C" />
<rect x="3" y="3" width="1" height="1" fill="#10141F" />
<rect x="5" y="3" width="1" height="2" fill="#602C2C" />
<rect x="6" y="3" width="8" height="3" fill="#7A4841" />
<rect x="14" y="3" width="1" height="5" fill="#602C2C" />
<rect x="15" y="3" width="1" height="1" fill="#341C27" />
<rect x="2" y="4" width="1" height="1" fill="#090A14" />
<rect x="3" y="4" width="1" height="2" fill="#341C27" />
<rect x="15" y="4" width="1" height="3" fill="#602C2C" />
<rect x="2" y="5" width="1" height="1" fill="#10141F" />
<rect x="5" y="5" width="1" height="5" fill="#7A4841" />
<rect x="16" y="5" width="1" height="2" fill="#10141F" />
<rect x="17" y="5" width="1" height="13" fill="#090A14" />
<rect x="2" y="6" width="1" height="1" fill="#341C27" />
<rect x="3" y="6" width="1" height="5" fill="#602C2C" />
<rect x="6" y="6" width="7" height="1" fill="#7A4841" />
<rect x="13" y="6" width="1" height="8" fill="#602C2C" />
<rect x="2" y="7" width="1" height="2" fill="#602C2C" />
<rect x="4" y="7" width="1" height="2" fill="#7A4841" />
<rect x="6" y="7" width="6" height="10" fill="#7A4841" />
<rect x="12" y="7" width="1" height="2" fill="#602C2C" />
<rect x="15" y="7" width="1" height="1" fill="#341C27" />
<rect x="16" y="7" width="1" height="11" fill="#090A14" />
<rect x="14" y="8" width="2" height="1" fill="#10141F" />
<rect x="2" y="9" width="1" height="1" fill="#341C27" />
<rect x="4" y="9" width="1" height="7" fill="#602C2C" />
<rect x="12" y="9" width="1" height="2" fill="#7A4841" />
<rect x="14" y="9" width="1" height="3" fill="#341C27" />
<rect x="15" y="9" width="1" height="2" fill="#090A14" />
<rect x="2" y="10" width="1" height="2" fill="#10141F" />
<rect x="5" y="10" width="1" height="3" fill="#602C2C" />
<rect x="3" y="11" width="1" height="1" fill="#341C27" />
<rect x="12" y="11" width="1" height="2" fill="#602C2C" />
<rect x="15" y="11" width="1" height="1" fill="#10141F" />
<rect x="2" y="12" width="1" height="2" fill="#090A14" />
<rect x="3" y="12" width="1" height="1" fill="#10141F" />
<rect x="14" y="12" width="1" height="4" fill="#602C2C" />
<rect x="15" y="12" width="1" height="3" fill="#341C27" />
<rect x="3" y="13" width="1" height="2" fill="#341C27" />
<rect x="5" y="13" width="1" height="4" fill="#7A4841" />
<rect x="12" y="13" width="1" height="4" fill="#7A4841" />
<rect x="2" y="14" width="1" height="1" fill="#10141F" />
<rect x="13" y="14" width="1" height="1" fill="#7A4841" />
<rect x="2" y="15" width="1" height="2" fill="#341C27" />
<rect x="3" y="15" width="1" height="2" fill="#602C2C" />
<rect x="13" y="15" width="1" height="2" fill="#602C2C" />
<rect x="15" y="15" width="1" height="2" fill="#10141F" />
<rect x="4" y="16" width="1" height="1" fill="#7A4841" />
<rect x="14" y="16" width="1" height="1" fill="#341C27" />
<rect x="2" y="17" width="14" height="1" fill="#090A14" />
</svg>