<?xml version="1.0" encoding="UTF-8" ?>
<svg version="1.1" width="16" height="16" xmlns="http://www.w3.org/2000/svg" shape-rendering="crispEdges">
<rect x="0" y="0" width="16" height="1" fill="#211912" />
<rect x="0" y="1" width="1" height="15" fill="#211912" />
<rect x="1" y="1" width="14" height="1" fill="#00C8FF" />
<rect x="15" y="1" width="1" height="15" fill="#211912" />
<rect x="1" y="2" width="6" height="3" fill="#00C8FF" />
<rect x="7" y="2" width="2" height="12" fill="#0085FF" />
<rect x="9" y="2" width="6" height="1" fill="#00C8FF" />
<rect x="9" y="3" width="2" height="7" fill="#00C8FF" />
<rect x="11" y="3" width="1" height="1" fill="#0085FF" />
<rect x="12" y="3" width="3" height="8" fill="#00C8FF" />
<rect x="11" y="4" width="1" height="6" fill="#00C8FF" />
<rect x="1" y="5" width="4" height="5" fill="#00C8FF" />
<rect x="5" y="5" width="1" height="1" fill="#0085FF" />
<rect x="6" y="5" width="1" height="6" fill="#00C8FF" />
<rect x="5" y="6" width="1" height="4" fill="#00C8FF" />
<rect x="1" y="10" width="3" height="2" fill="#00C8FF" />
<rect x="4" y="10" width="2" height="1" fill="#0085FF" />
<rect x="9" y="10" width="1" height="1" fill="#00C8FF" />
<rect x="10" y="10" width="2" height="1" fill="#0085FF" />
<rect x="4" y="11" width="1" height="4" fill="#00C8FF" />
<rect x="5" y="11" width="2" height="1" fill="#0085FF" />
<rect x="9" y="11" width="2" height="1" fill="#0085FF" />
<rect x="11" y="11" width="1" height="3" fill="#00C8FF" />
<rect x="12" y="11" width="1" height="1" fill="#0085FF" />
<rect x="13" y="11" width="2" height="4" fill="#00C8FF" />
<rect x="1" y="12" width="2" height="1" fill="#00C8FF" />
<rect x="3" y="12" width="1" height="1" fill="#D9D9D9" />
<rect x="5" y="12" width="1" height="3" fill="#00C8FF" />
<rect x="6" y="12" width="1" height="1" fill="#0085FF" />
<rect x="9" y="12" width="1" height="1" fill="#0085FF" />
<rect x="10" y="12" width="1" height="3" fill="#00C8FF" />
<rect x="12" y="12" width="1" height="3" fill="#00C8FF" />
<rect x="1" y="13" width="1" height="2" fill="#00C8FF" />
<rect x="2" y="13" width="1" height="2" fill="#0085FF" />
<rect x="3" y="13" width="1" height="2" fill="#00C8FF" />
<rect x="6" y="13" width="1" height="2" fill="#00C8FF" />
<rect x="9" y="13" width="1" height="2" fill="#00C8FF" />
<rect x="7" y="14" width="2" height="1" fill="#00C8FF" />
<rect x="11" y="14" width="1" height="1" fill="#0085FF" />
<rect x="1" y="15" width="14" height="1" fill="#211912" />
</svg>