<?xml version="1.0" encoding="UTF-8" ?>
<svg version="1.1" width="16" height="16" xmlns="http://www.w3.org/2000/svg" shape-rendering="crispEdges">
<rect x="8" y="3" width="1" height="1" fill="#211912" />
<rect x="7" y="4" width="1" height="1" fill="#211912" />
<rect x="8" y="4" width="1" height="7" fill="#16FF00" />
<rect x="9" y="4" width="1" height="1" fill="#211912" />
<rect x="6" y="5" width="1" height="3" fill="#211912" />
<rect x="7" y="5" width="1" height="6" fill="#16FF00" />
<rect x="9" y="5" width="1" height="6" fill="#16FF00" />
<rect x="10" y="5" width="1" height="3" fill="#211912" />
<rect x="5" y="8" width="1" height="2" fill="#211912" />
<rect x="6" y="8" width="1" height="2" fill="#16FF00" />
<rect x="10" y="8" width="1" height="2" fill="#16FF00" />
<rect x="11" y="8" width="1" height="2" fill="#211912" />
<rect x="6" y="10" width="1" height="1" fill="#211912" />
<rect x="10" y="10" width="1" height="1" fill="#211912" />
<rect x="7" y="11" width="1" height="1" fill="#211912" />
<rect x="8" y="11" width="1" height="1" fill="#FF6F00" />
<rect x="9" y="11" width="1" height="1" fill="#211912" />
</svg>