<?xml version="1.0" encoding="UTF-8" ?>
<svg version="1.1" width="16" height="29" xmlns="http://www.w3.org/2000/svg" shape-rendering="crispEdges">
<rect x="4" y="5" width="6" height="1" fill="#211912" />
<rect x="3" y="6" width="1" height="7" fill="#211912" />
<rect x="4" y="6" width="6" height="1" fill="#616161" />
<rect x="10" y="6" width="1" height="1" fill="#211912" />
<rect x="4" y="7" width="1" height="6" fill="#616161" />
<rect x="5" y="7" width="5" height="10" fill="#888888" />
<rect x="10" y="7" width="1" height="2" fill="#616161" />
<rect x="11" y="7" width="1" height="2" fill="#211912" />
<rect x="10" y="9" width="1" height="11" fill="#888888" />
<rect x="11" y="9" width="1" height="1" fill="#616161" />
<rect x="12" y="9" width="1" height="1" fill="#211912" />
<rect x="11" y="10" width="1" height="10" fill="#888888" />
<rect x="12" y="10" width="1" height="4" fill="#616161" />
<rect x="13" y="10" width="1" height="4" fill="#211912" />
<rect x="2" y="13" width="1" height="1" fill="#211912" />
<rect x="3" y="13" width="1" height="1" fill="#616161" />
<rect x="4" y="13" width="1" height="4" fill="#888888" />
<rect x="1" y="14" width="1" height="4" fill="#211912" />
<rect x="2" y="14" width="1" height="3" fill="#616161" />
<rect x="3" y="14" width="1" height="3" fill="#888888" />
<rect x="12" y="14" width="1" height="7" fill="#888888" />
<rect x="13" y="14" width="1" height="3" fill="#616161" />
<rect x="14" y="14" width="1" height="3" fill="#211912" />
<rect x="2" y="17" width="5" height="1" fill="#211912" />
<rect x="7" y="17" width="3" height="1" fill="#888888" />
<rect x="13" y="17" width="1" height="4" fill="#888888" />
<rect x="14" y="17" width="1" height="5" fill="#616161" />
<rect x="15" y="17" width="1" height="10" fill="#211912" />
<rect x="0" y="18" width="1" height="5" fill="#211912" />
<rect x="1" y="18" width="2" height="1" fill="#616161" />
<rect x="3" y="18" width="3" height="3" fill="#888888" />
<rect x="6" y="18" width="1" height="1" fill="#616161" />
<rect x="7" y="18" width="2" height="1" fill="#211912" />
<rect x="9" y="18" width="1" height="1" fill="#888888" />
<rect x="1" y="19" width="1" height="4" fill="#616161" />
<rect x="2" y="19" width="1" height="8" fill="#888888" />
<rect x="6" y="19" width="2" height="1" fill="#888888" />
<rect x="8" y="19" width="1" height="1" fill="#616161" />
<rect x="9" y="19" width="1" height="2" fill="#211912" />
<rect x="6" y="20" width="3" height="1" fill="#211912" />
<rect x="10" y="20" width="2" height="1" fill="#211912" />
<rect x="3" y="21" width="2" height="4" fill="#888888" />
<rect x="5" y="21" width="1" height="4" fill="#211912" />
<rect x="6" y="21" width="1" height="4" fill="#616161" />
<rect x="7" y="21" width="4" height="6" fill="#888888" />
<rect x="11" y="21" width="1" height="1" fill="#616161" />
<rect x="12" y="21" width="2" height="1" fill="#211912" />
<rect x="11" y="22" width="2" height="5" fill="#888888" />
<rect x="13" y="22" width="1" height="1" fill="#616161" />
<rect x="14" y="22" width="1" height="1" fill="#211912" />
<rect x="0" y="23" width="1" height="3" fill="#616161" />
<rect x="1" y="23" width="1" height="3" fill="#888888" />
<rect x="13" y="23" width="1" height="4" fill="#888888" />
<rect x="14" y="23" width="1" height="4" fill="#616161" />
<rect x="3" y="25" width="1" height="2" fill="#888888" />
<rect x="4" y="25" width="1" height="2" fill="#211912" />
<rect x="5" y="25" width="1" height="2" fill="#616161" />
<rect x="6" y="25" width="1" height="2" fill="#888888" />
<rect x="0" y="26" width="1" height="1" fill="#211912" />
<rect x="1" y="26" width="1" height="1" fill="#616161" />
</svg>