<?xml version="1.0" encoding="UTF-8" ?>
<svg version="1.1" width="16" height="16" xmlns="http://www.w3.org/2000/svg" shape-rendering="crispEdges">
<rect x="0" y="0" width="16" height="1" fill="#211912" />
<rect x="0" y="1" width="1" height="15" fill="#211912" />
<rect x="1" y="1" width="14" height="1" fill="#BD9D00" />
<rect x="15" y="1" width="1" height="15" fill="#211912" />
<rect x="1" y="2" width="1" height="13" fill="#BD9D00" />
<rect x="2" y="2" width="12" height="1" fill="#211912" />
<rect x="14" y="2" width="1" height="13" fill="#BD9D00" />
<rect x="2" y="3" width="1" height="11" fill="#211912" />
<rect x="3" y="3" width="10" height="1" fill="#828F4B" />
<rect x="13" y="3" width="1" height="11" fill="#211912" />
<rect x="3" y="4" width="4" height="1" fill="#828F4B" />
<rect x="7" y="4" width="1" height="1" fill="#211912" />
<rect x="8" y="4" width="1" height="1" fill="#FF970D" />
<rect x="9" y="4" width="1" height="1" fill="#211912" />
<rect x="10" y="4" width="3" height="1" fill="#828F4B" />
<rect x="3" y="5" width="3" height="8" fill="#828F4B" />
<rect x="6" y="5" width="1" height="1" fill="#211912" />
<rect x="7" y="5" width="1" height="1" fill="#FF970D" />
<rect x="8" y="5" width="1" height="1" fill="#FEBE00" />
<rect x="9" y="5" width="1" height="1" fill="#FF970D" />
<rect x="10" y="5" width="1" height="1" fill="#211912" />
<rect x="11" y="5" width="2" height="8" fill="#828F4B" />
<rect x="6" y="6" width="1" height="1" fill="#FF970D" />
<rect x="7" y="6" width="1" height="1" fill="#FEBE00" />
<rect x="8" y="6" width="1" height="1" fill="#7B4B57" />
<rect x="9" y="6" width="1" height="1" fill="#FEBE00" />
<rect x="10" y="6" width="1" height="1" fill="#FF970D" />
<rect x="6" y="7" width="1" height="1" fill="#211912" />
<rect x="7" y="7" width="1" height="1" fill="#FF970D" />
<rect x="8" y="7" width="1" height="1" fill="#FEBE00" />
<rect x="9" y="7" width="1" height="1" fill="#FF970D" />
<rect x="10" y="7" width="1" height="1" fill="#211912" />
<rect x="6" y="8" width="1" height="1" fill="#828F4B" />
<rect x="7" y="8" width="1" height="1" fill="#211912" />
<rect x="8" y="8" width="1" height="1" fill="#FF970D" />
<rect x="9" y="8" width="1" height="2" fill="#211912" />
<rect x="10" y="8" width="1" height="5" fill="#828F4B" />
<rect x="6" y="9" width="1" height="3" fill="#211912" />
<rect x="7" y="9" width="2" height="1" fill="#BD9D00" />
<rect x="7" y="10" width="1" height="2" fill="#BD9D00" />
<rect x="8" y="10" width="1" height="2" fill="#211912" />
<rect x="9" y="10" width="1" height="3" fill="#828F4B" />
<rect x="6" y="12" width="3" height="1" fill="#828F4B" />
<rect x="3" y="13" width="10" height="1" fill="#211912" />
<rect x="2" y="14" width="12" height="1" fill="#BD9D00" />
<rect x="1" y="15" width="14" height="1" fill="#211912" />
</svg>