<?xml version="1.0" encoding="UTF-8" ?>
<svg version="1.1" width="18" height="28" xmlns="http://www.w3.org/2000/svg" shape-rendering="crispEdges">
<rect x="7" y="5" width="1" height="1" fill="#090A14" />
<rect x="8" y="5" width="2" height="1" fill="#19332D" />
<rect x="10" y="5" width="1" height="1" fill="#090A14" />
<rect x="5" y="6" width="2" height="1" fill="#090A14" />
<rect x="7" y="6" width="1" height="1" fill="#19332D" />
<rect x="8" y="6" width="2" height="1" fill="#468232" />
<rect x="10" y="6" width="1" height="1" fill="#19332D" />
<rect x="11" y="6" width="2" height="1" fill="#090A14" />
<rect x="5" y="7" width="2" height="1" fill="#19332D" />
<rect x="7" y="7" width="4" height="1" fill="#25562E" />
<rect x="11" y="7" width="2" height="1" fill="#19332D" />
<rect x="5" y="8" width="1" height="2" fill="#090A14" />
<rect x="6" y="8" width="2" height="1" fill="#19332D" />
<rect x="8" y="8" width="2" height="1" fill="#25562E" />
<rect x="10" y="8" width="2" height="1" fill="#19332D" />
<rect x="12" y="8" width="1" height="2" fill="#090A14" />
<rect x="6" y="9" width="2" height="1" fill="#468232" />
<rect x="8" y="9" width="2" height="1" fill="#19332D" />
<rect x="10" y="9" width="2" height="1" fill="#468232" />
<rect x="4" y="10" width="1" height="1" fill="#19332D" />
<rect x="5" y="10" width="1" height="1" fill="#468232" />
<rect x="6" y="10" width="6" height="1" fill="#25562E" />
<rect x="12" y="10" width="1" height="1" fill="#468232" />
<rect x="13" y="10" width="1" height="1" fill="#19332D" />
<rect x="4" y="11" width="1" height="1" fill="#090A14" />
<rect x="5" y="11" width="2" height="1" fill="#19332D" />
<rect x="7" y="11" width="4" height="1" fill="#25562E" />
<rect x="11" y="11" width="2" height="1" fill="#19332D" />
<rect x="13" y="11" width="1" height="1" fill="#090A14" />
<rect x="5" y="12" width="2" height="1" fill="#468232" />
<rect x="7" y="12" width="4" height="1" fill="#19332D" />
<rect x="11" y="12" width="2" height="1" fill="#468232" />
<rect x="3" y="13" width="1" height="1" fill="#19332D" />
<rect x="4" y="13" width="1" height="1" fill="#468232" />
<rect x="5" y="13" width="8" height="1" fill="#25562E" />
<rect x="13" y="13" width="1" height="1" fill="#468232" />
<rect x="14" y="13" width="1" height="1" fill="#19332D" />
<rect x="4" y="14" width="2" height="1" fill="#19332D" />
<rect x="6" y="14" width="6" height="1" fill="#25562E" />
<rect x="12" y="14" width="2" height="1" fill="#19332D" />
<rect x="4" y="15" width="3" height="1" fill="#468232" />
<rect x="7" y="15" width="4" height="1" fill="#19332D" />
<rect x="11" y="15" width="3" height="1" fill="#468232" />
<rect x="2" y="16" width="1" height="1" fill="#19332D" />
<rect x="3" y="16" width="1" height="1" fill="#468232" />
<rect x="4" y="16" width="10" height="1" fill="#25562E" />
<rect x="14" y="16" width="1" height="1" fill="#468232" />
<rect x="15" y="16" width="1" height="1" fill="#19332D" />
<rect x="3" y="17" width="2" height="1" fill="#19332D" />
<rect x="5" y="17" width="8" height="1" fill="#25562E" />
<rect x="13" y="17" width="2" height="1" fill="#19332D" />
<rect x="4" y="18" width="2" height="1" fill="#468232" />
<rect x="6" y="18" width="6" height="1" fill="#19332D" />
<rect x="12" y="18" width="2" height="1" fill="#468232" />
<rect x="2" y="19" width="1" height="1" fill="#19332D" />
<rect x="3" y="19" width="1" height="1" fill="#468232" />
<rect x="4" y="19" width="10" height="1" fill="#25562E" />
<rect x="14" y="19" width="1" height="1" fill="#468232" />
<rect x="15" y="19" width="1" height="1" fill="#19332D" />
<rect x="3" y="20" width="2" height="1" fill="#19332D" />
<rect x="5" y="20" width="8" height="1" fill="#25562E" />
<rect x="13" y="20" width="2" height="1" fill="#19332D" />
<rect x="5" y="21" width="8" height="1" fill="#19332D" />
<rect x="6" y="22" width="1" height="1" fill="#341C27" />
<rect x="7" y="22" width="4" height="1" fill="#602C2C" />
<rect x="11" y="22" width="1" height="1" fill="#341C27" />
<rect x="6" y="23" width="1" height="4" fill="#602C2C" />
<rect x="7" y="23" width="4" height="4" fill="#884B2B" />
<rect x="11" y="23" width="1" height="4" fill="#602C2C" />
</svg>